HIERARCHY
ROOT Hips
{
	OFFSET 0.000000 0.000000 0.000000
	CHANNELS 6 Xposition Yposition Zposition Xrotation Yrotation Zrotation
	JOINT LeftUpLeg_virtual
	{
		OFFSET 0.000000 0.000000 0.000000
		CHANNELS 3 Xrotation Yrotation Zrotation
		JOINT LeftUpLeg
		{
			OFFSET 15.427100 -6.655098 0.678600
			CHANNELS 3 Xrotation Yrotation Zrotation
			JOINT LeftLeg
			{
				OFFSET 4.081073 -39.591068 13.024000
				CHANNELS 3 Xrotation Yrotation Zrotation
				JOINT LeftFoot
				{
					OFFSET -4.081074 -37.707932 -15.979700
					CHANNELS 3 Xrotation Yrotation Zrotation
					JOINT LeftToeBase
					{
						OFFSET 5.346399 -15.068900 20.645000
						CHANNELS 3 Xrotation Yrotation Zrotation
						JOINT LeftToe_End
						{
							OFFSET 2.754700 0.931300 11.300900
							CHANNELS 3 Xrotation Yrotation Zrotation
							End Site
							{
								OFFSET 0 0 0
							}
						}
					}
				}
			}
		}
	}
	JOINT RightUpLeg_virtual
	{
		OFFSET 0.000000 0.000000 0.000000
		CHANNELS 3 Xrotation Yrotation Zrotation
		JOINT RightUpLeg
		{
			OFFSET -15.569500 -6.655098 0.678600
			CHANNELS 3 Xrotation Yrotation Zrotation
			JOINT RightLeg
			{
				OFFSET -4.081825 -39.591045 13.023800
				CHANNELS 3 Xrotation Yrotation Zrotation
				JOINT RightFoot
				{
					OFFSET 4.081824 -37.707954 -15.979600
					CHANNELS 3 Xrotation Yrotation Zrotation
					JOINT RightToeBase
					{
						OFFSET -5.346400 -15.068900 20.645000
						CHANNELS 3 Xrotation Yrotation Zrotation
						JOINT RightToe_End
						{
							OFFSET -2.754700 0.931300 11.300900
							CHANNELS 3 Xrotation Yrotation Zrotation
							End Site
							{
								OFFSET 0 0 0
							}
						}
					}
				}
			}
		}
	}
	JOINT Spine_virtual
	{
		OFFSET 0.000000 0.000000 0.000000
		CHANNELS 3 Xrotation Yrotation Zrotation
		JOINT Spine
		{
			OFFSET -0.279200 12.230698 -2.892100
			CHANNELS 3 Xrotation Yrotation Zrotation
			JOINT Spine1
			{
				OFFSET -0.232667 10.192268 -1.242267
				CHANNELS 3 Xrotation Yrotation Zrotation
				JOINT Spine1_split
				{
					OFFSET -0.232667 10.192268 -1.242267
					CHANNELS 3 Xrotation Yrotation Zrotation
					JOINT Spine2
					{
						OFFSET -0.232667 10.192268 -1.242267
						CHANNELS 3 Xrotation Yrotation Zrotation
						JOINT Neck_virtual
						{
							OFFSET 0.000000 0.000000 0.000000
							CHANNELS 3 Xrotation Yrotation Zrotation
							JOINT Neck
							{
								OFFSET -0.418800 17.814194 8.416900
								CHANNELS 3 Xrotation Yrotation Zrotation
								JOINT Head
								{
									OFFSET 0.000000 7.031097 3.806800
									CHANNELS 3 Xrotation Yrotation Zrotation
									JOINT HeadTop_End
									{
										OFFSET 0.000000 24.646606 12.978600
										CHANNELS 3 Xrotation Yrotation Zrotation
										End Site
										{
											OFFSET 0 0 0
										}
									}
								}
							}
						}
						JOINT LeftShoulder_virtual
						{
							OFFSET 0.000000 0.000000 0.000000
							CHANNELS 3 Xrotation Yrotation Zrotation
							JOINT LeftShoulder
							{
								OFFSET 8.476499 7.247704 -3.868750
								CHANNELS 3 Xrotation Yrotation Zrotation
								JOINT LeftShoulder_split
								{
									OFFSET 8.476499 7.247704 -3.868750
									CHANNELS 3 Xrotation Yrotation Zrotation
									JOINT LeftArm
									{
										OFFSET 9.308998 -2.777710 0.208600
										CHANNELS 3 Xrotation Yrotation Zrotation
										JOINT LeftForeArm
										{
											OFFSET 29.972298 0.000000 0.000000
											CHANNELS 3 Xrotation Yrotation Zrotation
											JOINT LeftHand
											{
												OFFSET 26.026505 0.000000 0.000000
												CHANNELS 3 Xrotation Yrotation Zrotation
												End Site
												{
													OFFSET 0 0 0
												}
											}
										}
									}
								}
							}
						}
						JOINT RightShoulder_virtual
						{
							OFFSET 0.000000 0.000000 0.000000
							CHANNELS 3 Xrotation Yrotation Zrotation
							JOINT RightShoulder
							{
								OFFSET -7.570500 7.247704 -3.868750
								CHANNELS 3 Xrotation Yrotation Zrotation
								JOINT RightShoulder_split
								{
									OFFSET -7.570500 7.247704 -3.868750
									CHANNELS 3 Xrotation Yrotation Zrotation
									JOINT RightArm
									{
										OFFSET -9.308998 -2.777710 0.208500
										CHANNELS 3 Xrotation Yrotation Zrotation
										JOINT RightForeArm
										{
											OFFSET -29.972300 0.000000 0.000000
											CHANNELS 3 Xrotation Yrotation Zrotation
											JOINT RightHand
											{
												OFFSET -26.026505 0.000000 0.000000
												CHANNELS 3 Xrotation Yrotation Zrotation
												End Site
												{
													OFFSET 0 0 0
												}
											}
										}
									}
								}
							}
						}
					}
				}
			}
		}
	}
}
MOTION
Frames: 9
Frame Time: 0.03333333
-1.073983 89.995201 -2.934097 0.000000 0.000000 0.000000 -0.037833 -6.373694 0.844314 -15.034259 -7.562149 15.527272 29.422983 1.229454 -0.705648 -5.595845 9.385580 -11.966024 -1.767158 0.296085 -2.107860 0.000000 0.000000 0.000000 0.414020 -6.071718 0.895922 -8.329587 -3.819463 -15.494721 25.522218 3.930388 1.680498 -13.661983 -13.923198 12.671672 2.328626 -0.262874 0.931330 0.000000 0.000000 0.000000 0.351066 -3.892962 -0.006345 2.763085 -0.519693 0.493387 2.445889 -0.095821 0.284202 1.100244 -0.501240 -0.233458 0.000000 0.000000 0.000000 2.087137 -0.049733 0.183841 -1.382393 0.485537 1.164912 1.474109 1.202315 1.597072 0.000000 0.000000 0.000000 1.633605 0.078924 0.105815 0.508973 9.935968 -11.514427 -1.167691 -1.289693 -0.564586 14.669457 -8.533535 -50.705671 1.506231 -34.763129 1.527133 0.000000 0.000000 0.000000 1.959394 -0.037556 0.226422 1.736674 -7.918167 12.330717 1.384094 1.942419 -2.836077 6.032502 20.567402 61.172486 2.486723 24.117570 1.025388 0.000000 0.000000 0.000000 
-1.285267 90.130814 -2.702690 0.000000 0.000000 0.000000 0.008694 -5.627501 1.142221 -15.027096 -5.682574 14.625670 28.458309 0.942796 -0.881216 -5.538930 8.280080 -11.813242 -2.251669 0.185399 -1.581038 0.000000 0.000000 0.000000 0.310906 -5.776339 1.105427 -8.819512 -4.170613 -15.971368 25.249126 3.851414 1.891091 -13.706741 -13.421291 11.981163 3.190569 -0.235295 1.113197 0.000000 0.000000 0.000000 0.512890 -3.621383 0.514723 2.854219 -0.709254 0.395363 2.273315 -0.158195 0.232321 0.886386 -0.649243 -0.225368 0.000000 0.000000 0.000000 2.036593 -0.106620 0.156415 -1.088370 0.555493 0.891215 1.832650 1.356929 1.704979 0.000000 0.000000 0.000000 1.596491 -0.003965 0.061245 0.550129 9.806421 -11.437347 -1.204446 -1.170966 -0.566369 14.370158 -9.357459 -51.084084 1.562408 -35.340181 1.590884 0.000000 0.000000 0.000000 1.935383 -0.108151 0.235165 1.800087 -7.922130 12.334955 1.197162 1.869488 -3.044574 5.828242 20.743798 61.011764 2.444771 25.095382 1.042894 0.000000 0.000000 0.000000 
-1.606770 90.472542 -2.690880 0.000000 0.000000 0.000000 0.058623 -5.038339 1.850828 -14.060504 -3.081505 12.891814 26.016445 0.835315 -1.156560 -5.275173 6.608043 -11.480644 -3.764809 0.008230 -0.721970 0.000000 0.000000 0.000000 0.381953 -5.462200 1.700968 -10.387026 -4.552002 -16.527550 26.273446 3.713267 2.167442 -13.588806 -12.518753 10.446820 2.344879 -0.145863 1.177521 0.000000 0.000000 0.000000 0.666584 -3.566196 1.281291 3.019049 -1.137369 0.107619 1.995043 -0.283968 0.098726 0.821541 -0.520642 -0.161456 0.000000 0.000000 0.000000 1.786244 -0.204592 0.060020 -0.806050 0.542673 0.647477 2.686491 1.489338 1.908522 0.000000 0.000000 0.000000 1.388676 -0.131516 -0.011533 0.550631 9.468115 -11.297602 -1.099656 -0.881197 -0.537142 14.318135 -10.510077 -51.501279 1.292382 -36.000964 1.391661 0.000000 0.000000 0.000000 1.738750 -0.245474 0.187538 1.833702 -7.743087 12.363173 1.130937 1.735636 -3.186912 5.737411 21.101468 60.750339 2.302353 26.342465 1.068170 0.000000 0.000000 0.000000 
-1.899829 90.775055 -2.759705 0.000000 0.000000 0.000000 0.082660 -4.796018 2.697673 -12.269978 -0.039285 10.713749 22.631803 1.312893 -1.509129 -5.406619 4.994528 -10.280194 -4.019798 -0.149442 -0.233476 0.000000 0.000000 0.000000 0.527031 -5.244813 2.459017 -12.885088 -4.919613 -16.849457 28.710427 3.436745 2.428947 -13.345539 -11.451190 7.965780 -0.365921 -0.074994 1.187602 0.000000 0.000000 0.000000 0.787270 -4.039058 2.037782 3.279881 -1.735033 -0.309164 1.650130 -0.455717 -0.061594 0.867034 -0.309479 -0.029215 0.000000 0.000000 0.000000 1.412908 -0.323969 -0.066410 -0.582260 0.461242 0.485601 3.962711 1.663609 2.122712 0.000000 0.000000 0.000000 1.062563 -0.280413 -0.083772 0.508136 8.908584 -11.127331 -0.976853 -0.467749 -0.460217 14.522246 -11.808268 -51.897113 0.792157 -36.535474 0.999547 0.000000 0.000000 0.000000 1.419907 -0.415800 0.109454 1.828270 -7.366127 12.494224 1.122439 1.571777 -3.214243 5.787741 21.593477 60.369597 2.118355 27.519341 1.062014 0.000000 0.000000 0.000000 
-2.132703 90.916107 -2.898418 0.000000 0.000000 0.000000 0.185229 -5.030212 3.384993 -10.131874 2.967241 8.477289 19.004334 2.378531 -1.799686 -5.983507 3.773768 -8.256585 -1.977888 -0.217025 -0.537461 0.000000 0.000000 0.000000 0.730143 -5.547373 3.128298 -15.969196 -5.239456 -16.653231 32.056315 3.116781 2.678430 -12.917185 -10.141810 4.938078 -4.203199 -0.058739 1.091015 0.000000 0.000000 0.000000 0.786196 -5.141367 2.561437 3.631955 -2.360781 -0.717246 1.294539 -0.637229 -0.182186 1.023783 -0.084126 0.038249 0.000000 0.000000 0.000000 1.014356 -0.443982 -0.173178 -0.437069 0.359916 0.417809 5.580436 1.951505 2.238540 0.000000 0.000000 0.000000 0.703364 -0.417613 -0.122826 0.428686 8.172885 -10.931612 -0.981083 -0.099006 -0.445382 15.000984 -13.168807 -52.193212 0.256301 -36.885030 0.580073 0.000000 0.000000 0.000000 1.044381 -0.584341 0.035429 1.774364 -6.793052 12.791425 1.068536 1.379140 -3.183801 5.937436 22.092570 59.878438 1.948657 28.465945 1.006579 0.000000 0.000000 0.000000 
-2.135302 90.848328 -2.932716 0.000000 0.000000 0.000000 0.311443 -5.903574 3.646039 -7.856345 5.266816 6.600600 15.645153 3.470588 -1.875953 -6.761032 2.764365 -6.111080 0.284920 -0.219558 -0.872381 0.000000 0.000000 0.000000 0.845811 -6.426061 3.461515 -19.163841 -5.593312 -15.784137 35.538246 3.020742 3.015144 -12.010528 -8.356994 2.020764 -7.869579 -0.073691 0.873390 0.000000 0.000000 0.000000 0.668699 -6.653357 2.708778 4.037095 -2.866735 -0.999384 0.989059 -0.782371 -0.223950 1.148378 0.092953 0.108626 0.000000 0.000000 0.000000 0.674367 -0.542442 -0.228686 -0.336575 0.285342 0.401799 7.493606 2.418739 2.138076 0.000000 0.000000 0.000000 0.389609 -0.520723 -0.115491 0.341764 7.342068 -10.730777 -1.105184 0.130393 -0.416565 15.736469 -14.566832 -52.306415 -0.105833 -37.057447 0.292981 0.000000 0.000000 0.000000 0.679772 -0.725489 -0.006569 1.678892 -6.052427 13.280596 0.989398 1.223980 -3.101495 6.157451 22.384058 59.359637 1.827628 29.263628 0.893422 0.000000 0.000000 0.000000 
-1.876412 90.703674 -3.085209 0.000000 0.000000 0.000000 0.320300 -7.180867 3.431849 -5.995325 6.790770 5.387569 13.406833 4.152527 -1.818263 -7.454673 1.779404 -4.793718 1.097808 -0.179172 -0.911614 0.000000 0.000000 0.000000 0.836636 -7.701654 3.333851 -21.721222 -6.159685 -14.140633 38.046158 3.383583 3.397783 -10.472582 -5.965365 -0.249015 -10.594529 -0.053518 0.568089 0.000000 0.000000 0.000000 0.517028 -8.335712 2.495690 4.476863 -3.168252 -1.081103 0.756412 -0.867489 -0.189875 1.079862 0.251480 0.208035 0.000000 0.000000 0.000000 0.445837 -0.602371 -0.221904 -0.199995 0.289429 0.400945 9.633019 3.045186 1.782476 0.000000 0.000000 0.000000 0.183384 -0.578592 -0.071310 0.283296 6.542049 -10.556208 -1.274548 0.221027 -0.409220 16.652331 -15.987709 -52.180938 -0.159049 -37.067262 0.228676 0.000000 0.000000 0.000000 0.377669 -0.821229 -0.020167 1.551369 -5.231358 13.873969 0.962545 1.233394 -2.990929 6.467165 22.227999 58.921194 1.762388 30.168666 0.729372 0.000000 0.000000 0.000000 
-1.361426 90.586899 -3.370773 0.000000 0.000000 0.000000 0.091764 -8.580887 2.901731 -4.839485 7.671663 4.633285 12.844328 4.728235 -1.731390 -8.365057 1.073691 -4.103994 0.491897 -0.126938 -1.073826 0.000000 0.000000 0.000000 0.740784 -9.256918 2.815388 -22.881123 -6.826933 -11.730702 38.681800 4.228491 3.683512 -8.558875 -3.126766 -1.703648 -12.012928 0.048429 0.231629 0.000000 0.000000 0.000000 0.310580 -10.062347 2.045638 4.922748 -3.243812 -0.974809 0.617009 -0.869772 -0.117296 0.984006 0.334191 0.258172 0.000000 0.000000 0.000000 0.334638 -0.618797 -0.163254 0.043919 0.396481 0.372799 11.902067 3.795345 1.200648 0.000000 0.000000 0.000000 0.094762 -0.593622 -0.014994 0.263766 5.885297 -10.415305 -1.413625 0.100184 -0.343436 17.658848 -17.360975 -51.784394 0.072271 -36.883155 0.378529 0.000000 0.000000 0.000000 0.180951 -0.860984 -0.017224 1.418148 -4.396542 14.496839 0.919254 1.438337 -2.926984 6.913184 21.445568 58.676475 1.730108 31.464595 0.561190 0.000000 0.000000 0.000000 
-0.664748 90.483261 -3.589603 0.000000 0.000000 0.000000 -0.373420 -9.968065 2.176969 -4.660032 7.738154 4.321783 14.350798 5.085948 -1.577563 -9.232675 0.896051 -4.301840 -0.747525 0.006100 -1.354696 0.000000 0.000000 0.000000 0.528813 -10.890882 2.078139 -22.386312 -7.455589 -8.902441 37.182539 5.334099 3.747095 -6.711381 -0.306866 -2.646382 -12.085082 0.216418 0.019991 0.000000 0.000000 0.000000 0.059271 -11.613990 1.534139 5.293109 -3.122541 -0.794333 0.540493 -0.808342 -0.055187 0.921692 0.302195 0.235863 0.000000 0.000000 0.000000 0.302774 -0.599183 -0.087721 0.444657 0.584193 0.337837 14.227769 4.581002 0.498042 0.000000 0.000000 0.000000 0.102521 -0.578313 0.022191 0.292530 5.443371 -10.301276 -1.475583 -0.227445 -0.260294 18.582740 -18.644996 -51.187224 0.426231 -36.529272 0.614245 0.000000 0.000000 0.000000 0.101291 -0.856399 -0.012719 1.308320 -3.624496 15.049845 0.762585 1.798163 -2.914864 7.531020 20.013808 58.679651 1.702106 33.260176 0.427507 0.000000 0.000000 0.000000 
